<?xml version="1.0" encoding="UTF-8" standalone="no"?>
<!-- Created with Inkscape (http://www.inkscape.org/) -->

<svg
   xmlns:dc="http://purl.org/dc/elements/1.1/"
   xmlns:cc="http://creativecommons.org/ns#"
   xmlns:rdf="http://www.w3.org/1999/02/22-rdf-syntax-ns#"
   xmlns:svg="http://www.w3.org/2000/svg"
   xmlns="http://www.w3.org/2000/svg"
   version="1.0"
   width="393.05023"
   height="327.72888"
   id="svg2">
  <metadata
     id="metadata9">
    <rdf:RDF>
      <cc:Work
         rdf:about="">
        <dc:format>image/svg+xml</dc:format>
        <dc:type
           rdf:resource="http://purl.org/dc/dcmitype/StillImage" />
        <dc:title></dc:title>
      </cc:Work>
    </rdf:RDF>
  </metadata>
  <defs
     id="defs4" />
  <g
     transform="translate(-108.29358,-60.959337)"
     id="layer1">
    <g
       transform="translate(129.28571,-64.285714)"
       id="g2221" />
    <g
       transform="matrix(7.4090201,0,0,7.4090201,-4123.7411,-1317.9072)"
       id="g3009">
      <path
         d="m 586.20984,186.12148 c -3.3563,0.0278 -7.12207,1.22863 -10.8125,4.84375 -10.73582,10.51672 1.68412,23.82122 8.78125,29.8125 5.43395,4.58726 13.42267,9.49554 13.53125,9.5625 3.7e-4,2.3e-4 0.0235,-0.008 0.0312,0 0.10588,-0.0653 8.09637,-5.0057 13.53125,-9.59375 7.09713,-5.99128 19.51707,-19.26453 8.78125,-29.78125 -10.64424,-10.42701 -21.90199,-0.85209 -22.09375,-0.6875 l -0.0312,0.0312 -0.25,0.15625 -0.125,-0.125 0,-0.0312 c 0,0 -0.0309,2.8e-4 -0.0312,0 -0.056,-0.0479 -4.94163,-4.24027 -11.3125,-4.1875 z"
         id="path2999"
         style="fill:#f12938;fill-opacity:1;stroke:none" />
    </g>
  </g>
</svg>
